<?xml version="1.0" encoding="utf-8"?>
<!-- Generator: Adobe Illustrator 22.0.0, SVG Export Plug-In . SVG Version: 6.00 Build 0)  -->
<svg version="1.1" id="Capa_1" xmlns="http://www.w3.org/2000/svg" xmlns:xlink="http://www.w3.org/1999/xlink" x="0px" y="0px"
	 viewBox="0 0 737 552.3" style="enable-background:new 0 0 737 552.3;" xml:space="preserve">
<style type="text/css">
	.st0{fill:#F7F7F8;}
	.st1{opacity:0.1;fill:#7B7B7B;enable-background:new    ;}
	.st2{clip-path:url(#SVGID_2_);}
	.st3{fill:#7B7B7B;}
	.st4{fill:#C22329;}
	.st5{fill:none;stroke:#FFFFFF;stroke-miterlimit:10;}
	.st6{fill:#FFFFFF;}
	.st7{fill:#CB262B;}
	.st8{fill:#646567;}
	.st9{font-family:'FuturaPT-BoldObl';}
	.st10{font-size:9.3581px;}
</style>
<title>DIPLOMA-GAFI</title>
<g>
	<g id="PRINT">
		<g>
			<polygon class="st0" points="0,0.1 736.8,-0.5 737,551.4 0,551.4 			"/>
			<g>
				<path class="st1" d="M507.9,397.6c-5.1,0.1-10.2,0-15.3-0.5c-3.7-0.2-7.3-0.7-10.9-1.1c-6.2-0.8-12.4-1.9-18.5-3.4
					c-10.1-2.3-20-5.5-29.6-9.5c-15.3-6.3-29.8-14.7-42.9-24.9c-17.7-13.7-32.7-30.7-44.1-50c-8.2-13.9-14.4-28.8-18.3-44.4
					c-1.1-4.4-2-8.8-2.7-13.2c-0.4-2.9-1-5.8-1.3-8.7c-0.3-3-0.6-6-0.7-9c-0.2-4.1-0.4-8.2-0.3-12.3c0.1-4.5,0.4-9,0.8-13.5
					c0.3-3.3,0.7-6.6,1.2-9.9c0.9-5.7,2.1-11.4,3.6-17.1c3.5-13,8.5-25.5,14.9-37.3c7-12.7,15.5-24.6,25.4-35.2
					c13.5-14.5,29.2-26.7,46.6-36.2c14.4-7.8,29.7-13.7,45.6-17.6c5.1-1.2,10.2-2.3,15.3-3.1c2.9-0.5,5.8-0.9,8.7-1.1
					c1.5-0.1,3.1-0.3,4.6-0.4c0.2,0,0.5,0,0.7,0.1c0.1,0,0.3,0.3,0.2,0.3c-0.1,0.4-0.3,0.7-0.5,1c-2.3,3.1-4.4,6.3-6.4,9.6
					c-7.1,11.7-12.4,24.4-15.6,37.7c-0.9,3.7-1.6,7.4-2.2,11.2c-0.3,1.9-0.4,3.9-0.7,5.8c-0.6,4.1-0.5,8.2-0.7,12.3
					c-0.1,1.7,0.1,3.4,0.1,5.1c0,1.4,0.2,1.5-1.5,2.3c-7.4,3.3-14.3,7.4-20.7,12.3c-10.1,7.6-18.6,17.1-25.1,28
					c-5.1,8.5-8.9,17.8-11.1,27.4c-0.8,3.5-1.4,7-1.8,10.6c-0.6,5.8-0.7,11.6-0.3,17.4c0.2,2.8,0.5,5.6,1,8.3
					c1.1,6.6,2.9,13.1,5.4,19.3c4.2,10.5,10.2,20.1,17.8,28.5c9.6,10.7,21.4,19.3,34.5,25.1c7.5,3.4,15.3,5.8,23.4,7.4
					c3.2,0.6,6.4,1.1,9.7,1.4c6.3,0.6,12.6,0.7,18.8,0.3c11.1-0.8,22.1-3.3,32.4-7.6c13.9-5.6,26.4-14.2,36.6-25.2
					c5.8-6.2,10.8-13.2,14.8-20.7c0.4-0.7,0.7-1.4,1.1-2.1c0.2-0.4,0.7-0.7,1.2-0.6c1.8,0.1,3.6,0.1,5.4,0.2c0.2,0,0.5,0.1,0.7,0
					c4.3-0.1,8.6-0.1,13-0.5c1.9-0.2,3.9-0.4,5.8-0.6c3.6-0.4,7.1-0.9,10.6-1.6c17.9-3.4,35.1-10.2,50.5-19.9
					c0.6-0.4,1.2-0.8,1.8-1.1c0.2-0.1,0.4-0.1,0.7-0.1c0.1,0.1,0.2,0.4,0.2,0.6c-0.2,1.5-0.3,2.9-0.5,4.4
					c-4.2,30.5-16.7,59.3-36.1,83.3c-6.8,8.4-14.3,16.2-22.5,23.3c-15.4,13.3-32.9,24-51.9,31.6c-9.3,3.8-18.9,6.8-28.8,9
					c-4.6,1.1-9.2,2-13.9,2.6c-3,0.4-6,0.9-9,1.2c-2.5,0.3-5,0.4-7.6,0.6c-2.2,0.2-4.4,0.3-6.6,0.4
					C511.1,397.6,509.1,397.6,507.9,397.6z"/>
				<path class="st1" d="M717.9,122.8c-0.7-11.8-3.3-23.4-7.8-34.4c-14-33.8-44.8-57.8-80.2-65.7c-16.7-3.8-34.1-4.1-51-1
					c-26.1,4.9-50.7,18.7-67.9,38.9c-25.3,29.7-33.4,72.2-19.1,108.6c13,33.2,42.3,58.2,76.5,67.6c36.3,10,77.4,2.8,107.2-20.5
					C704.5,194.2,720.3,159.1,717.9,122.8L717.9,122.8z M601.5,210.2c-46.5-0.2-83.7-35.8-83.6-79.7c0.1-45.3,39.1-79.5,83.9-79.4
					c45.7,0.1,83.6,35.5,83.5,79.8C685.1,173.6,648.8,210,601.5,210.2z"/>
			</g>
			<g>
				<defs>
					<polygon id="SVGID_1_" points="0,0.1 736.8,0.4 737,552.3 0,551.4 					"/>
				</defs>
				<clipPath id="SVGID_2_">
					<use xlink:href="#SVGID_1_"  style="overflow:visible;"/>
				</clipPath>
				<g class="st2">
					<polygon class="st3" points="105.5,552.3 0,552.3 0,491.1 0.1,217.2 93.6,0.1 338.3,-0.5 					"/>
					<path class="st4" d="M129.4,0.1L0.1,0.1v144.1l73.7,408.1H737c0,0,0,0,0,0v-57.4L129.4,0.1z"/>
				</g>
			</g>
		</g>
		<g>
			<g>
				<path class="st5" d="M32,161.2c0-2.1,1.2-3.4,3.1-3.4c0.7,0,1.4,0.3,1.9,0.8l-0.3,0.3c-0.4-0.5-1-0.7-1.6-0.7
					c-1.6,0-2.6,1.2-2.6,3c0,1.8,0.9,3,2.5,3c0.6,0,1.1-0.2,1.6-0.5v-2.1h-1.7v-0.4h2.1v2.6c-0.6,0.5-1.3,0.8-2.1,0.8
					C33.2,164.7,32,163.4,32,161.2z"/>
				<path class="st5" d="M39.9,157.9h2c1.4,0,2.3,0.5,2.3,1.8c0,1-0.8,1.8-1.7,1.8c0,0,0,0-0.1,0l1.9,3.1h-0.6l-1.9-3.1h-1.5v3.1
					h-0.5V157.9z M41.8,161.1c1.2,0,1.9-0.5,1.9-1.5c0-1-0.7-1.4-1.9-1.4h-1.4v2.8H41.8z"/>
				<path class="st5" d="M46.8,162v-4.1h0.5v4.1c0,1.8,0.9,2.3,1.9,2.3c1,0,1.9-0.5,1.9-2.3v-4.1h0.5v4.1c0,2.1-1.2,2.7-2.4,2.7
					C47.9,164.7,46.8,164.1,46.8,162z"/>
				<path class="st5" d="M54.6,157.9h1.8c1.6,0,2.5,0.5,2.5,1.9c0,1.3-0.9,1.9-2.5,1.9h-1.3v2.9h-0.5V157.9z M56.3,161.3
					c1.4,0,2.1-0.5,2.1-1.5c0-1.1-0.7-1.5-2.2-1.5h-1.2v3H56.3z"/>
				<path class="st5" d="M61.1,161.2c0-2.1,1.2-3.4,2.9-3.4c1.7,0,2.9,1.3,2.9,3.4c0,2.1-1.2,3.5-2.9,3.5
					C62.3,164.7,61.1,163.3,61.1,161.2z M66.3,161.2c0-1.8-0.9-3-2.4-3c-1.4,0-2.4,1.2-2.4,3c0,1.8,0.9,3.1,2.4,3.1
					C65.4,164.3,66.3,163.1,66.3,161.2z"/>
				<path class="st5" d="M72.3,161.2c0-2.1,1.2-3.4,3.1-3.4c0.7,0,1.4,0.3,1.9,0.8l-0.3,0.3c-0.4-0.5-1-0.7-1.6-0.7
					c-1.6,0-2.6,1.2-2.6,3c0,1.8,0.9,3,2.5,3c0.6,0,1.1-0.2,1.6-0.5v-2.1h-1.7v-0.4h2.1v2.6c-0.6,0.5-1.3,0.8-2.1,0.8
					C73.5,164.7,72.3,163.4,72.3,161.2z"/>
				<path class="st5" d="M81.7,157.9h0.5l2.5,6.7h-0.5l-0.8-2.3h-2.8l-0.8,2.3h-0.5L81.7,157.9z M80.7,161.9h2.5l-0.4-1.2
					c-0.3-0.8-0.5-1.5-0.8-2.3h0c-0.2,0.8-0.5,1.5-0.8,2.3L80.7,161.9z"/>
				<path class="st5" d="M86.9,157.9h3.8v0.4h-3.3v2.6h2.8v0.4h-2.8v3.2h-0.5V157.9z"/>
				<path class="st5" d="M93,157.9h0.5v6.7H93V157.9z"/>
				<path class="st5" d="M99.4,161.2c0-2.1,1.2-3.4,2.9-3.4c1.7,0,2.9,1.3,2.9,3.4c0,2.1-1.2,3.5-2.9,3.5
					C100.6,164.7,99.4,163.3,99.4,161.2z M104.6,161.2c0-1.8-0.9-3-2.4-3c-1.4,0-2.4,1.2-2.4,3c0,1.8,0.9,3.1,2.4,3.1
					C103.7,164.3,104.6,163.1,104.6,161.2z"/>
				<path class="st5" d="M109.1,158.3h-2.2v-0.4h5v0.4h-2.2v6.3h-0.5V158.3z"/>
				<path class="st5" d="M113.6,161.2c0-2.1,1.2-3.4,2.9-3.4c1.7,0,2.9,1.3,2.9,3.4c0,2.1-1.2,3.5-2.9,3.5
					C114.8,164.7,113.6,163.3,113.6,161.2z M118.8,161.2c0-1.8-0.9-3-2.4-3c-1.4,0-2.4,1.2-2.4,3c0,1.8,0.9,3.1,2.4,3.1
					C117.9,164.3,118.8,163.1,118.8,161.2z"/>
				<path class="st5" d="M122,157.9h2c1.4,0,2.3,0.5,2.3,1.8c0,1-0.8,1.8-1.7,1.8c0,0,0,0-0.1,0l1.9,3.1h-0.6l-1.9-3.1h-1.5v3.1H122
					L122,157.9z M123.9,161.1c1.2,0,1.9-0.5,1.9-1.5c0-1-0.7-1.4-1.9-1.4h-1.4v2.8H123.9z"/>
				<path class="st5" d="M128.4,161.2c0-2.1,1.2-3.4,3.1-3.4c0.7,0,1.4,0.3,1.9,0.8l-0.3,0.3c-0.4-0.5-1-0.7-1.6-0.7
					c-1.6,0-2.6,1.2-2.6,3c0,1.8,0.9,3,2.5,3c0.6,0,1.1-0.2,1.6-0.5v-2.1h-1.7v-0.4h2.1v2.6c-0.6,0.5-1.3,0.8-2.1,0.8
					C129.6,164.7,128.4,163.4,128.4,161.2z"/>
				<path class="st5" d="M137.9,157.9h0.5l2.5,6.7h-0.5l-0.8-2.3h-2.8l-0.8,2.3h-0.5L137.9,157.9z M136.9,161.9h2.5l-0.4-1.2
					c-0.3-0.8-0.5-1.5-0.8-2.3h0c-0.2,0.8-0.5,1.5-0.8,2.3L136.9,161.9z"/>
				<path class="st5" d="M146.2,157.9h3.8v0.4h-3.3v2.5h2.8v0.4h-2.8v2.9h3.5v0.4h-3.9V157.9z"/>
				<path class="st5" d="M152.7,157.9h0.5v6.3h3.2v0.4h-3.7L152.7,157.9z"/>
				<path class="st5" d="M162,157.9h1.8c1.6,0,2.5,0.5,2.5,1.9c0,1.3-0.9,1.9-2.5,1.9h-1.3v2.9H162L162,157.9z M163.7,161.3
					c1.4,0,2.1-0.5,2.1-1.5c0-1.1-0.7-1.5-2.2-1.5h-1.2v3H163.7z"/>
				<path class="st5" d="M168.9,157.9h2c1.4,0,2.3,0.5,2.3,1.8c0,1-0.8,1.8-1.7,1.8c0,0,0,0-0.1,0l1.9,3.1h-0.6l-1.9-3.1h-1.5v3.1
					h-0.5V157.9z M170.8,161.1c1.2,0,1.9-0.5,1.9-1.5c0-1-0.7-1.4-1.9-1.4h-1.4v2.8H170.8z"/>
				<path class="st5" d="M175.7,157.9h3.8v0.4h-3.3v2.5h2.8v0.4h-2.8v2.9h3.5v0.4h-3.9V157.9z"/>
				<path class="st5" d="M181.7,163.7l0.3-0.3c0.5,0.6,1.3,0.9,2.1,0.9c1.1,0,1.7-0.5,1.7-1.3c0-0.8-0.6-1.1-1.3-1.4l-1.1-0.5
					c-0.6-0.3-1.4-0.7-1.4-1.7c0-1,0.9-1.6,2-1.6c0.7,0,1.4,0.3,1.9,0.8l-0.3,0.3c-0.4-0.4-1-0.7-1.7-0.7c-0.9,0-1.6,0.5-1.6,1.2
					c0,0.8,0.7,1.1,1.2,1.3l1.1,0.4c0.8,0.3,1.5,0.7,1.5,1.8c0,1-0.9,1.8-2.2,1.8C183.2,164.7,182.3,164.4,181.7,163.7z"/>
				<path class="st5" d="M188.9,157.9h3.8v0.4h-3.3v2.5h2.8v0.4h-2.8v2.9h3.5v0.4h-3.9V157.9z"/>
				<path class="st5" d="M195.4,157.9h0.5l3,4.7l0.8,1.3h0c0-0.6-0.1-1.3-0.1-1.9v-4.1h0.5v6.7h-0.5l-3-4.7l-0.8-1.3h0
					c0,0.6,0.1,1.2,0.1,1.9v4.1h-0.5V157.9z"/>
				<path class="st5" d="M204.8,158.3h-2.2v-0.4h5v0.4h-2.2v6.3h-0.5V158.3z"/>
				<path class="st5" d="M209.9,157.9h3.8v0.4h-3.3v2.5h2.8v0.4h-2.8v2.9h3.5v0.4h-3.9V157.9z"/>
			</g>
			<g>
				<path class="st6" d="M32,171.7h7.7c4.8,0,8.4,1.6,8.4,6.5c0.1,2.9-1.8,5.5-4.6,6.2l5.5,9.1h-4.6l-4.9-8.5h-3.5v8.5H32V171.7z
					 M39.3,181.9c3.1,0,4.8-1.3,4.8-3.7c0-2.5-1.7-3.4-4.8-3.4h-3.3v7.1L39.3,181.9z"/>
				<path class="st6" d="M52.8,171.7h13.8v3.3h-9.7v5.6h8.2v3.3h-8.2v6.4h10.1v3.3H52.8V171.7z"/>
				<path class="st6" d="M70.4,182.6c0-7.1,4.7-11.4,10.5-11.4c2.5,0,4.9,1,6.6,2.8l-2.2,2.5c-1.1-1.2-2.7-1.9-4.3-1.9
					c-3.8,0-6.4,3-6.4,7.9c0,5,2.5,8,6.3,8c1.9,0,3.7-0.8,4.9-2.2l2.2,2.4c-1.8,2.1-4.5,3.2-7.2,3.2C75,193.9,70.4,189.9,70.4,182.6
					z"/>
				<path class="st6" d="M89.5,182.5c0-7,4.1-11.2,10.1-11.2c6,0,10.1,4.2,10.1,11.2c0,7.1-4.1,11.4-10.1,11.4
					C93.6,193.9,89.5,189.5,89.5,182.5z M105.5,182.5c0-4.9-2.3-7.8-5.9-7.8c-3.6,0-5.9,3-5.9,7.8c0,4.9,2.3,8,5.9,8
					C103.2,190.5,105.5,187.4,105.5,182.5z"/>
				<path class="st6" d="M114.3,171.7h4.2l7.2,12.3l2.3,4.6h0.1c-0.2-2.2-0.5-5-0.5-7.4v-9.5h3.9v21.8h-4.2l-7.2-12.3l-2.3-4.6h-0.1
					c0.2,2.3,0.5,4.9,0.5,7.4v9.5h-3.9L114.3,171.7z"/>
				<path class="st6" d="M136.1,182.5c0-7,4.1-11.2,10.1-11.2c6,0,10.1,4.2,10.1,11.2c0,7.1-4.1,11.4-10.1,11.4
					C140.2,193.9,136.1,189.5,136.1,182.5z M152.1,182.5c0-4.9-2.3-7.8-5.9-7.8c-3.6,0-5.9,3-5.9,7.8c0,4.9,2.3,8,5.9,8
					C149.8,190.5,152.1,187.4,152.1,182.5z"/>
				<path class="st6" d="M159.7,182.6c0-7.1,4.7-11.4,10.5-11.4c2.5,0,4.9,1,6.6,2.8l-2.2,2.5c-1.1-1.2-2.7-1.9-4.3-1.9
					c-3.8,0-6.4,3-6.4,7.9c0,5,2.5,8,6.3,8c1.9,0,3.7-0.8,4.9-2.2l2.2,2.4c-1.8,2.1-4.5,3.2-7.2,3.2
					C164.3,193.9,159.7,189.9,159.7,182.6z"/>
				<path class="st6" d="M181.1,171.7h4.1v21.8h-4.1V171.7z"/>
				<path class="st6" d="M191,171.7h4.6l4.1,10.7c0.5,1.4,1,2.8,1.5,4.3h0.1c0.5-1.4,0.9-2.9,1.4-4.3l4-10.7h4.6v21.8h-3.8v-10
					c0-2,0.3-4.9,0.5-6.9h-0.1l-1.9,5.1l-3.8,9.8h-2.4l-3.8-9.8l-1.8-5.1h-0.1c0.2,2,0.5,4.9,0.5,6.9v10H191L191,171.7z"/>
				<path class="st6" d="M217.1,171.7h4.1v21.8h-4.1V171.7z"/>
				<path class="st6" d="M227,171.7h13.8v3.3h-9.7v5.6h8.2v3.3h-8.2v6.4h10.1v3.3H227V171.7z"/>
				<path class="st6" d="M245.9,171.7h4.2l7.2,12.3l2.3,4.6h0.1c-0.2-2.2-0.5-5-0.5-7.4v-9.5h3.9v21.8h-4.2l-7.2-12.3l-2.3-4.6h-0.1
					c0.2,2.3,0.5,4.9,0.5,7.4v9.5h-3.9L245.9,171.7z"/>
				<path class="st6" d="M273.5,174.9h-6.6v-3.3h17.3v3.3h-6.6v18.5h-4.1V174.9z"/>
				<path class="st6" d="M285.9,182.5c0-7,4.1-11.2,10.1-11.2c6,0,10.1,4.2,10.1,11.2c0,7.1-4.1,11.4-10.1,11.4
					C290.1,193.9,285.9,189.5,285.9,182.5z M301.9,182.5c0-4.9-2.3-7.8-5.9-7.8c-3.6,0-5.9,3-5.9,7.8c0,4.9,2.3,8,5.9,8
					C299.6,190.5,301.9,187.4,301.9,182.5z"/>
			</g>
		</g>
		<g>
			<g>
				<path class="st6" d="M29.3,68.5c0.9,0,1.8,0,2.7,0c0.2,0,0.2,0,0.2,0.2c0,0.4,0,0.7,0,1.1c0,0.7-0.2,1.4-0.5,2.1
					c-0.4,0.9-1.1,1.7-2,2.2c-0.4,0.2-0.9,0.4-1.4,0.5c-0.4,0.1-0.8,0.1-1.2,0.1c-0.4,0-0.8,0-1.2,0c-1.1-0.1-2.1-0.4-3-1.1
					c-1.1-0.8-1.8-2.1-2-3.5c-0.1-0.4-0.1-0.8,0-1.3c0-0.6,0.2-1.1,0.4-1.6c0.5-1.3,1.6-2.3,2.9-2.9c0.5-0.2,1-0.4,1.6-0.4
					c0.4-0.1,0.9-0.1,1.3-0.1c0.2,0,0.5,0,0.7,0.1c1,0.1,1.9,0.5,2.7,1.1c0.4,0.3,0.8,0.7,1.1,1.1c0,0,0,0,0,0.1c0,0,0,0,0,0.1
					c0,0,0,0,0,0c0,0-0.1,0-0.1,0c-0.8,0.3-1.5,0.7-2.3,1c0,0-0.1,0-0.1,0c0,0-0.1,0-0.1,0c0,0-0.1-0.1-0.1-0.1
					c-0.2-0.2-0.4-0.4-0.6-0.5c-0.4-0.3-0.8-0.4-1.3-0.5c-0.4,0-0.8,0-1.2,0.1c-0.5,0.1-1,0.4-1.3,0.8c-0.2,0.3-0.4,0.6-0.5,1
					c-0.1,0.5-0.2,1.1-0.1,1.6c0,0.3,0.1,0.6,0.2,0.8c0.1,0.4,0.3,0.8,0.6,1.1c0.4,0.4,0.9,0.7,1.5,0.8c0.3,0,0.6,0.1,0.9,0
					c0.5,0,1.1-0.2,1.5-0.5c0.5-0.3,0.8-0.8,0.9-1.3c0,0,0,0,0-0.1c0,0,0,0,0,0c-0.1,0-0.1,0-0.2,0c-0.8,0-1.6,0-2.4,0
					c-0.1,0-0.1,0-0.2,0c0,0-0.1,0-0.1-0.1c0-0.1,0-0.1,0-0.2c0-0.4,0-0.7,0-1.1c0-0.2,0-0.4,0-0.6c0,0,0-0.1,0-0.1
					c0-0.1,0-0.1,0.1-0.1c0.1,0,0.1,0,0.2,0C27.6,68.5,28.4,68.5,29.3,68.5z"/>
				<path class="st6" d="M45,69.3c0-1.6,0-3.2,0-4.8c0-0.1,0-0.1,0-0.2c0-0.1,0-0.1,0.1-0.1c0.1,0,0.1,0,0.2,0c2,0,4.1,0,6.1,0
					c0.3,0,0.3,0,0.3,0.3c0,0.6,0,1.2,0,1.7c0,0.1,0,0.1,0,0.2c0,0,0,0,0,0c0,0-0.1,0-0.1,0c-0.1,0-0.2,0-0.3,0c-1,0-2,0-3,0
					c-0.1,0-0.1,0-0.2,0c0,0-0.1,0-0.1,0.1c0,0,0,0.1,0,0.1c0,0.2,0,0.4,0,0.6c0,0.3,0,0.6,0,0.9c0,0,0,0.1,0,0.1c0,0,0,0,0,0
					c0.1,0,0.2,0,0.2,0c1,0,1.9,0,2.9,0c0.1,0,0.2,0,0.3,0c0,0,0.1,0,0.1,0.1c0,0,0,0.1,0,0.1c0,0.6,0,1.3,0,1.9c0,0,0,0.1,0,0.1
					c0,0,0,0,0,0c0,0,0,0,0,0c-0.1,0-0.1,0-0.2,0c-1,0-2,0-2.9,0c-0.1,0-0.2,0-0.2,0c0,0-0.1,0-0.1,0.1c0,0,0,0,0,0.1
					c0,0.1,0,0.1,0,0.2c0,1.2,0,2.3,0,3.5c0,0.1,0,0.1,0,0.2c0,0,0,0.1-0.1,0.1c-0.1,0-0.1,0-0.2,0c-0.3,0-0.5,0-0.8,0
					c-0.5,0-1.1,0-1.6,0c-0.1,0-0.1,0-0.2,0c0,0-0.1,0-0.1-0.1c0,0,0,0,0,0c0-0.1,0-0.1,0-0.2C45,72.6,45,70.9,45,69.3z"/>
				<path class="st6" d="M53.4,69.3c0-1.6,0-3.3,0-4.9c0-0.3,0-0.3,0.3-0.3c0.8,0,1.6,0,2.4,0c0,0,0.1,0,0.1,0c0.2,0,0.2,0,0.2,0.2
					c0,0,0,0.1,0,0.1c0,3.3,0,6.5,0,9.8c0,0.1,0,0.1,0,0.2c0,0,0,0,0,0c0,0,0,0,0,0c-0.1,0-0.1,0-0.2,0c-0.8,0-1.7,0-2.5,0
					c-0.1,0-0.1,0-0.2,0c0,0-0.1,0-0.1-0.1c0,0,0,0,0-0.1c0-0.1,0-0.1,0-0.2C53.4,72.6,53.4,70.9,53.4,69.3z"/>
				<path class="st6" d="M38.7,58.7c-0.5,0-1,0-1.5,0c-0.4,0-0.7-0.1-1.1-0.1c-0.6-0.1-1.2-0.2-1.8-0.3c-1-0.2-1.9-0.5-2.9-0.9
					c-1.5-0.6-2.9-1.4-4.1-2.4c-1.7-1.3-3.2-3-4.2-4.8c-0.8-1.3-1.4-2.8-1.8-4.3c-0.1-0.4-0.2-0.8-0.3-1.3c0-0.3-0.1-0.6-0.1-0.8
					c0-0.3-0.1-0.6-0.1-0.9c0-0.4,0-0.8,0-1.2c0-0.4,0-0.9,0.1-1.3c0-0.3,0.1-0.6,0.1-1c0.1-0.6,0.2-1.1,0.3-1.6
					c0.3-1.3,0.8-2.5,1.4-3.6c0.7-1.2,1.5-2.4,2.4-3.4c1.3-1.4,2.8-2.6,4.5-3.5c1.4-0.8,2.9-1.3,4.4-1.7c0.5-0.1,1-0.2,1.5-0.3
					c0.3,0,0.6-0.1,0.8-0.1c0.1,0,0.3,0,0.4,0c0,0,0,0,0.1,0c0,0,0,0,0,0c0,0,0,0.1-0.1,0.1c-0.2,0.3-0.4,0.6-0.6,0.9
					c-0.7,1.1-1.2,2.4-1.5,3.6c-0.1,0.4-0.2,0.7-0.2,1.1c0,0.2,0,0.4-0.1,0.6c-0.1,0.4,0,0.8-0.1,1.2c0,0.2,0,0.3,0,0.5
					c0,0.1,0,0.1-0.1,0.2c-0.7,0.3-1.4,0.7-2,1.2c-1,0.7-1.8,1.7-2.4,2.7c-0.5,0.8-0.9,1.7-1.1,2.6c-0.1,0.3-0.1,0.7-0.2,1
					c-0.1,0.6-0.1,1.1,0,1.7c0,0.3,0,0.5,0.1,0.8c0.1,0.6,0.3,1.3,0.5,1.9c0.4,1,1,1.9,1.7,2.7c0.9,1,2.1,1.9,3.3,2.4
					c0.7,0.3,1.5,0.6,2.3,0.7c0.3,0.1,0.6,0.1,0.9,0.1c0.6,0.1,1.2,0.1,1.8,0c1.1-0.1,2.1-0.3,3.1-0.7c1.3-0.5,2.5-1.4,3.5-2.4
					c0.6-0.6,1-1.3,1.4-2c0-0.1,0.1-0.1,0.1-0.2c0,0,0.1-0.1,0.1-0.1c0.2,0,0.3,0,0.5,0c0,0,0,0,0.1,0c0.4,0,0.8,0,1.2,0
					c0.2,0,0.4,0,0.6-0.1c0.3,0,0.7-0.1,1-0.2c1.7-0.3,3.4-1,4.9-1.9c0.1,0,0.1-0.1,0.2-0.1c0,0,0,0,0.1,0c0,0,0,0,0,0.1
					c0,0.1,0,0.3,0,0.4c-0.4,2.9-1.6,5.7-3.5,8c-0.7,0.8-1.4,1.6-2.2,2.2c-1.5,1.3-3.2,2.3-5,3c-0.9,0.4-1.8,0.7-2.8,0.9
					c-0.4,0.1-0.9,0.2-1.3,0.3c-0.3,0-0.6,0.1-0.9,0.1c-0.2,0-0.5,0-0.7,0.1c-0.2,0-0.4,0-0.6,0C39,58.7,38.8,58.7,38.7,58.7z"/>
				<path class="st6" d="M59.6,32c0,0,0-0.1,0-0.1c0,0,0-0.1,0-0.1c0-0.1,0-0.1,0-0.2c0-0.3,0-0.6-0.1-1c-0.2-1.1-0.6-2.1-1.2-3.1
					c-0.7-1.2-1.5-2.2-2.6-3c-0.9-0.7-1.8-1.3-2.9-1.7c-1.1-0.5-2.3-0.8-3.6-0.8c-0.1,0-0.1,0-0.2,0c0,0-0.1,0-0.1,0
					c-0.1,0-0.1,0-0.2,0c-0.1,0-0.1,0-0.2,0H48c-0.1,0-0.2,0-0.2,0c0,0-0.1,0-0.1,0c-0.1,0-0.1,0-0.2,0c-0.3,0-0.5,0.1-0.8,0.1
					c-2.1,0.3-4,1.2-5.6,2.5c-1.5,1.2-2.7,2.8-3.3,4.7c-0.2,0.5-0.3,1.1-0.4,1.6c-0.1,0.3-0.1,0.6-0.1,1c0,0.4,0,0.9,0,1.3
					c0,0.4,0.1,0.9,0.1,1.3c0.1,0.7,0.3,1.3,0.6,2c1.5,3.6,4.7,6.1,8.5,6.8c0.2,0,0.4,0.1,0.7,0.1c0.3,0,0.5,0.1,0.8,0.1
					c0.2,0,0.4,0,0.6,0c0.6,0,1.3,0,1.9-0.1c0.6-0.1,1.1-0.2,1.7-0.4c2.2-0.7,4.2-2,5.6-3.9c0.9-1.2,1.6-2.6,1.9-4
					c0.1-0.3,0.1-0.7,0.2-1c0-0.1,0-0.1,0-0.2c0,0,0-0.1,0-0.1c0-0.1,0-0.1,0-0.2L59.6,32z M48.4,40.4c-4.3,0.1-8-3.3-8.1-7.7
					c0,0,0,0,0,0c0.2-4.5,4-7.9,8.5-7.6c4.1,0.2,7.4,3.5,7.6,7.7C56.3,37.1,52.7,40.5,48.4,40.4z"/>
				<path class="st6" d="M44,74.4c0-0.1-0.1-0.2-0.1-0.3c-0.9-2.5-1.8-5.1-2.8-7.6c-0.3-0.7-0.5-1.5-0.8-2.2c0-0.1-0.1-0.1-0.2-0.1
					c-0.1,0-0.1,0-0.2,0h-1.6c-0.6,0-1.1,0-1.7,0c-0.2,0-0.2,0-0.3,0.2c-0.4,1-0.7,1.9-1.1,2.9c-0.8,2.3-1.7,4.7-2.5,7
					c0,0.1,0,0.1-0.1,0.2c0,0,0,0,0,0c0.1,0,0.1,0,0.2,0c0.8,0,1.7,0,2.5,0c0,0,0.1,0,0.1,0c0,0,0.1,0,0.1-0.1c0-0.1,0-0.1,0.1-0.2
					c0.1-0.5,0.3-0.9,0.4-1.4c0,0,0-0.1,0-0.1c0,0,0-0.1,0.1,0c0.1,0,0.1,0,0.2,0c1.2,0,2.4,0,3.7,0c0.3,0,0.3,0,0.4,0.3
					c0.1,0.5,0.3,0.9,0.4,1.4c0,0,0,0.1,0,0.1c0,0,0,0,0,0c0,0,0.1,0,0.1,0c0.9,0,1.8,0,2.6,0C43.9,74.5,43.9,74.5,44,74.4
					C44,74.5,44,74.4,44,74.4z M39.8,70.6c-0.1,0-0.1,0-0.2,0c-0.4,0-0.8,0-1.2,0c-0.4,0-0.8,0-1.3,0c-0.1,0-0.1,0-0.2,0
					c0,0,0,0,0,0c0,0,0,0,0,0c0,0,0-0.1,0-0.1c0.1-0.3,0.2-0.7,0.3-1c0.2-0.7,0.5-1.5,0.7-2.2c0.1-0.4,0.2-0.9,0.4-1.3c0,0,0,0,0,0
					c0,0,0,0,0,0c0,0,0,0,0,0.1c0,0.2,0.1,0.3,0.1,0.5c0.1,0.5,0.3,1.1,0.5,1.6c0.3,0.8,0.5,1.6,0.8,2.4
					C39.8,70.5,39.8,70.5,39.8,70.6C39.9,70.6,39.8,70.6,39.8,70.6z"/>
			</g>
			<g>
				<g>
					<path class="st7" d="M672,40.4c1.7,0,3.4,0,5.1,0c0.4,0,0.4,0,0.4,0.4c0,0.7,0,1.4,0,2.1c-0.1,1.4-0.4,2.8-1,4.1
						c-0.8,1.8-2.1,3.3-3.8,4.3c-0.8,0.5-1.7,0.8-2.7,1c-0.7,0.2-1.4,0.2-2.2,0.3c-0.7,0-1.5,0-2.2,0c-2.1-0.1-4-0.9-5.6-2.2
						c-1.4-1.1-2.5-2.7-3.2-4.4c-0.3-0.8-0.5-1.6-0.6-2.4c-0.1-0.8-0.1-1.7-0.1-2.5c0.1-1.1,0.3-2.2,0.7-3.2c1-2.5,3-4.6,5.5-5.7
						c0.9-0.4,1.9-0.7,3-0.8c0.8-0.1,1.6-0.1,2.4-0.1c0.4,0,0.9,0.1,1.3,0.1c1.8,0.3,3.6,1,5,2.2c0.8,0.6,1.4,1.4,2,2.2
						c0,0,0,0.1,0.1,0.1c0,0,0,0.1,0,0.1c-0.1,0-0.1,0.1-0.2,0.1c-1.4,0.7-2.9,1.4-4.3,2.1c-0.1,0-0.1,0.1-0.2,0.1
						c-0.1,0-0.2,0-0.2,0c-0.1-0.1-0.1-0.2-0.2-0.3c-0.3-0.4-0.7-0.7-1.1-1c-0.7-0.5-1.5-0.8-2.4-0.9c-0.8-0.1-1.6,0-2.3,0.2
						c-1,0.3-1.8,0.9-2.4,1.7c-0.5,0.6-0.8,1.3-1,2c-0.3,1-0.3,2.1-0.2,3.2c0,0.6,0.1,1.1,0.3,1.6c0.2,0.8,0.6,1.5,1.1,2.1
						c0.7,0.8,1.7,1.4,2.8,1.5c0.6,0.1,1.1,0.1,1.7,0.1c1-0.1,2-0.4,2.9-1c0.9-0.6,1.5-1.5,1.6-2.6c0,0,0-0.1,0-0.1c0,0,0,0-0.1-0.1
						c-0.1,0-0.3,0-0.4,0c-1.5,0-3,0-4.5,0c-0.1,0-0.3,0-0.4,0c-0.1,0-0.1,0-0.1-0.1c0-0.1,0-0.2,0-0.4c0-0.7,0-1.5,0-2.2
						c0-0.4,0-0.8,0-1.2c0-0.1,0-0.1,0-0.2c0-0.1,0-0.2,0.2-0.2c0.1,0,0.3,0,0.4,0C668.8,40.4,670.4,40.4,672,40.4z"/>
					<path class="st8" d="M701.5,42c0-3.2,0-6.4,0-9.5c0-0.1,0-0.3,0-0.4c0-0.2,0-0.2,0.2-0.2c0.1,0,0.2,0,0.3,0c3.8,0,7.6,0,11.4,0
						c0.6,0,0.5-0.1,0.5,0.5c0,1.1,0,2.3,0,3.4c0,0.1,0,0.3,0,0.4c0,0,0,0.1-0.1,0.1c-0.1,0-0.1,0-0.2,0c-0.2,0-0.4,0-0.6,0
						c-1.9,0-3.8,0-5.6,0c-0.1,0-0.3,0-0.4,0c-0.1,0-0.1,0.1-0.1,0.1c0,0.1,0,0.1,0,0.2c0,0.4,0,0.7,0,1.1c0,0.6,0,1.1,0,1.7
						c0,0.1,0,0.2,0,0.3c0,0,0,0.1,0.1,0.1c0.1,0,0.3,0,0.4,0c1.8,0,3.6,0,5.4,0c0.2,0,0.4,0,0.5,0c0.1,0,0.1,0.1,0.1,0.1
						c0,0.1,0,0.1,0,0.2c0,1.2,0,2.5,0,3.7c0,0.1,0,0.2,0,0.3c0,0,0,0-0.1,0.1c0,0-0.1,0-0.1,0c-0.1,0-0.3,0-0.4,0
						c-1.8,0-3.7,0-5.5,0c-0.1,0-0.3,0-0.4,0c-0.1,0-0.1,0.1-0.1,0.1c0,0,0,0.1,0,0.1c0,0.1,0,0.2,0,0.4c0,2.3,0,4.5,0,6.8
						c0,0.1,0,0.3,0,0.4c0,0.1-0.1,0.1-0.1,0.1c-0.1,0-0.2,0-0.3,0c-0.5,0-1,0-1.5,0c-1,0-2,0-3,0c-0.1,0-0.3,0-0.4,0
						c-0.1,0-0.1-0.1-0.1-0.1c0,0,0,0,0,0c0-0.1,0-0.3,0-0.4C701.5,48.4,701.5,45.2,701.5,42z"/>
					<path class="st8" d="M717.1,42c0-3.2,0-6.4,0-9.6c0-0.6-0.1-0.5,0.5-0.5c1.5,0,3,0,4.5,0c0.1,0,0.1,0,0.2,0
						c0.3,0,0.3,0,0.3,0.3c0,0.1,0,0.1,0,0.2c0,6.4,0,12.9,0,19.3c0,0.1,0,0.3,0,0.4c0,0,0,0-0.1,0.1c0,0-0.1,0-0.1,0
						c-0.1,0-0.2,0-0.3,0c-1.6,0-3.1,0-4.7,0c-0.1,0-0.2,0-0.4,0c-0.1,0-0.1-0.1-0.1-0.1c0,0,0-0.1,0-0.1c0-0.1,0-0.2,0-0.4
						C717.1,48.4,717.1,45.2,717.1,42z"/>
					<path class="st8" d="M699.5,52c-0.1-0.2-0.1-0.4-0.2-0.7c-1.7-5-3.5-10-5.2-15c-0.5-1.4-1-2.9-1.5-4.3
						c-0.1-0.2-0.1-0.3-0.3-0.3c-0.1,0-0.2,0-0.3,0H689c-1,0-2.1,0-3.1,0c-0.4,0-0.4,0-0.5,0.4c-0.7,1.9-1.3,3.8-2,5.7
						c-1.6,4.6-3.2,9.2-4.7,13.7c0,0.1-0.1,0.2-0.1,0.3c0,0,0,0.1,0.1,0.1c0.1,0,0.2,0,0.4,0c1.5,0,3.1,0,4.6,0c0.1,0,0.2,0,0.3,0
						c0.1,0,0.2,0,0.2-0.1c0-0.1,0.1-0.3,0.1-0.4c0.3-0.9,0.5-1.9,0.8-2.8c0-0.1,0-0.1,0.1-0.2c0-0.1,0.1-0.1,0.1-0.1
						c0.1,0,0.3,0,0.4,0c2.3,0,4.6,0,6.8,0c0.6,0,0.5-0.1,0.7,0.5c0.3,0.9,0.5,1.9,0.8,2.8c0,0.1,0.1,0.2,0.1,0.2c0,0,0,0,0.1,0.1
						c0.1,0,0.1,0,0.2,0c1.6,0,3.3,0,4.9,0C699.3,52.2,699.4,52.1,699.5,52C699.5,52.1,699.5,52.1,699.5,52z M691.7,44.6
						c-0.1,0-0.2,0-0.4,0c-0.8,0-1.5,0-2.3,0c-0.8,0-1.6,0-2.3,0c-0.1,0-0.2,0-0.3,0c0,0,0,0,0,0c0,0,0,0,0,0c0-0.1,0-0.1,0-0.2
						c0.2-0.6,0.4-1.3,0.6-1.9c0.4-1.5,0.9-2.9,1.3-4.4c0.3-0.9,0.5-1.7,0.7-2.6c0,0,0-0.1,0.1,0c0,0,0,0,0,0c0,0,0,0.1,0.1,0.1
						c0.1,0.3,0.2,0.6,0.2,0.9c0.2,1,0.6,2.1,0.9,3.1c0.5,1.5,1,3.1,1.4,4.6C691.7,44.3,691.8,44.4,691.7,44.6
						C691.8,44.5,691.8,44.5,691.7,44.6C691.7,44.6,691.7,44.6,691.7,44.6L691.7,44.6z"/>
				</g>
				<text transform="matrix(1 0 0 1 675.6512 29.1398)" class="st7 st9 st10">U</text>
				<text transform="matrix(1 0 0 1 682.1248 29.1398)" class="st8 st9 st10">niversidad</text>
			</g>
			<g>
				<path class="st6" d="M639.7,533.3c0-1,0-1.9,0-2.9c0-0.2,0-0.3,0-0.5c0-0.1,0.1-0.2,0.2-0.2c0.7,0,1.5,0,2.2,0
					c0.1,0,0.2,0.1,0.2,0.2c0,0.3,0,0.5,0,0.8c0,0.1,0,0,0.1,0c0,0,0,0,0.1,0c0.1,0,0.1-0.1,0.1-0.1c0.2-0.2,0.3-0.3,0.5-0.5
					c0.4-0.4,1-0.6,1.6-0.6c0.4,0,0.8,0,1.1,0.1c0.5,0.1,1,0.4,1.3,0.9c0,0.1,0.1,0.1,0.2,0.2c0,0,0.1,0,0.1,0
					c0.1-0.1,0.2-0.2,0.4-0.4c0.4-0.4,0.9-0.7,1.4-0.8c0.6-0.1,1.2-0.1,1.8,0.1c0.6,0.2,1.2,0.7,1.4,1.3c0.1,0.3,0.2,0.5,0.2,0.8
					c0,0.2,0,0.3,0,0.5c0,1.4,0,2.8,0,4.2c0,0.1,0,0.3,0,0.4c0,0.1-0.1,0.1-0.1,0.1c0,0-0.1,0-0.1,0c-0.7,0-1.4,0-2.1,0
					c-0.1,0-0.1,0-0.2,0c0,0-0.1-0.1-0.1-0.1c0-0.1,0-0.3,0-0.4c0-1.1,0-2.2,0-3.3c0-0.3,0-0.6,0-0.9c-0.1-0.7-0.5-1-1.3-0.9
					c-0.4,0-0.8,0.3-0.9,0.7c0,0.1-0.1,0.2-0.1,0.4c-0.1,0.4-0.1,0.8-0.1,1.3c0,0.9,0,1.8,0,2.6c0,0.1,0,0.3,0,0.4
					c0,0-0.1,0.1-0.1,0.1c0,0,0,0,0,0c-0.7,0-1.5,0-2.2,0c-0.1,0-0.2-0.1-0.2-0.2c0,0,0,0,0,0c0-0.2,0-0.3,0-0.5c0-1,0-2,0-3
					c0-0.2,0-0.5,0-0.7c0-0.1,0-0.3-0.1-0.4c-0.1-0.4-0.5-0.7-0.9-0.7c-0.2,0-0.5,0-0.7,0.1c-0.3,0.1-0.5,0.4-0.6,0.7
					c-0.1,0.3-0.1,0.6-0.2,0.9c0,0.3,0,0.6,0,0.8c0,0.8,0,1.7,0,2.5c0,0.1,0,0.2,0,0.3c0,0.1-0.1,0.2-0.2,0.2c0,0,0,0,0,0
					c-0.3,0-0.5,0-0.8,0c-0.4,0-0.9,0-1.3,0c-0.1,0-0.2-0.1-0.2-0.2c0,0,0,0,0,0c0-0.2,0-0.3,0-0.5
					C639.7,535.3,639.7,534.3,639.7,533.3z"/>
				<path class="st6" d="M619.6,537.2c-1.4,0-2.8-0.5-3.8-1.5c0,0-0.1-0.1,0-0.2c0.4-0.6,0.8-1.3,1.2-1.9c0,0,0.1,0,0.1,0
					c0.1,0.1,0.2,0.1,0.3,0.2c0.3,0.2,0.5,0.5,0.8,0.7c0.3,0.2,0.7,0.3,1,0.4c0.4,0.1,0.8,0.1,1.2-0.1c0.5-0.2,0.8-0.8,0.6-1.4
					c0,0,0-0.1,0-0.1c-0.1-0.2-0.2-0.3-0.4-0.4c-0.2-0.1-0.4-0.2-0.7-0.3c-0.3-0.1-0.6-0.2-1-0.3c-0.4-0.1-0.8-0.2-1.1-0.4
					c-0.3-0.1-0.6-0.3-0.8-0.6c-0.3-0.3-0.5-0.6-0.6-1c-0.5-1.8,0.5-3.6,2.3-4.1c0.1,0,0.2-0.1,0.3-0.1c1.4-0.3,2.9-0.1,4.1,0.7
					c0.1,0,0.1,0.1,0.2,0.1c0,0,0,0.1,0,0.1c0,0.1-0.1,0.2-0.1,0.2c-0.2,0.5-0.5,1-0.7,1.5c0,0.1-0.1,0.1-0.2,0.1c0,0,0,0,0,0
					c-0.1,0-0.1-0.1-0.2-0.1c-0.1-0.1-0.3-0.2-0.4-0.2c-0.3-0.2-0.7-0.3-1.1-0.3c-0.3-0.1-0.6,0-0.9,0.1c-0.1,0-0.2,0.1-0.3,0.2
					c-0.3,0.2-0.4,0.7-0.2,1.1c0.1,0.1,0.1,0.1,0.2,0.2c0.1,0.1,0.3,0.2,0.5,0.2c0.3,0.1,0.6,0.2,0.9,0.3c0.4,0.1,0.9,0.2,1.3,0.4
					c0.4,0.1,0.7,0.4,1,0.6c0.3,0.3,0.6,0.7,0.7,1.1c0.2,0.7,0.2,1.5-0.1,2.3c-0.4,1.1-1.3,2-2.5,2.3
					C620.7,537.2,620.1,537.3,619.6,537.2z"/>
				<path class="st6" d="M720.5,537.2c-1,0-2.1-0.2-3-0.7c-0.1,0-0.2-0.1-0.2-0.1c0,0-0.1-0.1-0.1-0.2c0.1-0.5,0.3-1.1,0.5-1.6
					c0-0.1,0.1-0.2,0.3-0.1c0.1,0.1,0.3,0.2,0.4,0.3c0.7,0.4,1.5,0.6,2.2,0.6c0.2,0,0.4-0.1,0.6-0.2c0.3-0.1,0.4-0.4,0.2-0.7
					c0-0.1-0.1-0.2-0.2-0.2c-0.2-0.1-0.4-0.2-0.6-0.2c-0.4-0.1-0.7-0.2-1.1-0.3c-0.3-0.1-0.6-0.2-0.9-0.4c-0.2-0.1-0.3-0.2-0.5-0.4
					c-0.3-0.3-0.5-0.7-0.5-1.1c0-0.3,0-0.6,0.1-0.8c0.1-0.5,0.5-0.9,0.9-1.2c0.4-0.3,0.9-0.4,1.4-0.5c1.2-0.1,2.4,0.1,3.5,0.5
					c0.1,0,0.2,0.1,0.1,0.3c-0.1,0.5-0.3,0.9-0.4,1.4c0,0.1-0.1,0.1-0.2,0.1c-0.2-0.1-0.3-0.2-0.5-0.2c-0.4-0.2-0.8-0.3-1.2-0.3
					c-0.3-0.1-0.6,0-0.9,0.1c-0.1,0-0.2,0.1-0.3,0.2c-0.1,0.1-0.1,0.3,0,0.5c0.1,0.1,0.2,0.2,0.3,0.2c0.3,0.1,0.6,0.2,0.9,0.3
					c0.4,0.1,0.8,0.2,1.2,0.4c0.2,0.1,0.4,0.2,0.6,0.4c0.4,0.3,0.7,0.8,0.7,1.4c0.1,1-0.5,1.9-1.5,2.3c-0.4,0.2-0.8,0.3-1.2,0.3
					C721,537.2,720.7,537.2,720.5,537.2z"/>
				<path class="st6" d="M697.9,537.2c-1,0-2-0.2-2.9-0.7c-0.1,0-0.2-0.1-0.2-0.1c-0.1,0-0.1-0.1-0.1-0.2c0.2-0.5,0.3-1.1,0.5-1.6
					c0-0.1,0.1-0.1,0.3-0.1c0.1,0,0.1,0.1,0.2,0.1c0.5,0.3,1,0.5,1.6,0.6c0.3,0.1,0.6,0.1,0.9,0.1c0.2,0,0.4-0.1,0.5-0.2
					c0.3-0.1,0.4-0.4,0.2-0.7c0-0.1-0.1-0.2-0.2-0.2c-0.2-0.1-0.4-0.2-0.6-0.2c-0.3-0.1-0.7-0.2-1-0.3c-0.3-0.1-0.6-0.2-0.9-0.4
					c-0.2-0.1-0.4-0.2-0.5-0.4c-0.3-0.3-0.5-0.7-0.5-1.1c0-0.3,0-0.6,0.1-0.8c0.1-0.5,0.5-0.9,0.9-1.2c0.4-0.3,0.9-0.5,1.4-0.5
					c1.2-0.1,2.4,0.1,3.6,0.5c0.1,0,0.2,0.2,0.1,0.3c-0.1,0.5-0.3,0.9-0.4,1.3c0,0.1-0.2,0.2-0.3,0.1c-0.1-0.1-0.3-0.1-0.4-0.2
					c-0.4-0.2-0.8-0.3-1.2-0.3c-0.3-0.1-0.6,0-0.9,0.1c-0.1,0-0.2,0.1-0.2,0.2c-0.1,0.1-0.1,0.3,0,0.5c0.1,0.1,0.2,0.2,0.3,0.2
					c0.3,0.1,0.6,0.2,0.9,0.3c0.4,0.1,0.8,0.2,1.2,0.4c0.2,0.1,0.4,0.2,0.6,0.4c0.4,0.3,0.7,0.8,0.7,1.4c0.1,1-0.5,1.9-1.4,2.3
					c-0.4,0.2-0.8,0.3-1.3,0.3C698.4,537.2,698.2,537.2,697.9,537.2z"/>
				<path class="st6" d="M685.7,531.4c0-1.6,0-3.2,0-4.9c0-0.2,0-0.3,0-0.5c0-0.1,0.1-0.2,0.2-0.2c0,0,0.1,0,0.1,0
					c0.7,0,1.4,0,2.1,0c0.2,0,0.3,0.1,0.3,0.3c0,0.1,0,0.3,0,0.4c0,3.3,0,6.6,0,9.9c0,0.1,0,0.3,0,0.4c0,0.1-0.1,0.2-0.2,0.2
					c-0.8,0-1.5,0-2.3,0c-0.1,0-0.2-0.1-0.2-0.2c0,0,0,0,0,0c0-0.1,0-0.1,0-0.2c0-0.1,0-0.3,0-0.4
					C685.7,534.5,685.7,532.9,685.7,531.4z"/>
				<path class="st6" d="M703.2,534.2c0-0.7,0-1.5,0-2.2c0-0.1,0-0.3,0-0.4c0-0.1-0.1-0.1-0.1-0.1c-0.1,0-0.2,0-0.3,0
					c-0.2,0-0.4,0-0.5,0c-0.1,0-0.2-0.1-0.2-0.2c0-0.5,0-1,0-1.5c0-0.1,0.1-0.2,0.2-0.2c0.2,0,0.5,0,0.7,0c0.1,0,0.2-0.1,0.2-0.2
					c0-0.4,0-0.8,0-1.2c0-0.8-0.1-0.7,0.7-0.7c0.5,0,0.9,0,1.4,0c0.5,0,0.5,0,0.5,0.5c0,0.4,0,0.9,0,1.3c0,0.1,0,0.2,0,0.3
					c0,0.1,0.1,0.1,0.1,0.1c0.1,0,0.2,0,0.3,0c0.2,0,0.4,0,0.5,0c0.1,0,0.2,0.1,0.2,0.2c0,0.5,0,0.9,0,1.4c0,0.1-0.1,0.2-0.3,0.2
					c-0.2,0-0.4,0-0.7,0c-0.1,0-0.2,0.1-0.2,0.2c0,0.2,0,0.3,0,0.5c0,1.3,0,2.6,0,4c0,0.2,0,0.4,0,0.6c0,0.1-0.1,0.1-0.1,0.1
					c0,0,0,0-0.1,0c-0.7,0-1.5,0-2.2,0c-0.1,0-0.2-0.1-0.2-0.2c0,0,0,0,0,0c0-0.2,0-0.3,0-0.5C703.2,535.6,703.2,534.9,703.2,534.2z
					"/>
				<path class="st6" d="M664.5,533.3c0-1,0-1.9,0-2.9c0-0.2,0-0.3,0-0.5c0-0.1,0.1-0.2,0.3-0.2c0,0,0,0,0.1,0c0.6,0,1.3,0,1.9,0
					c0,0,0.1,0,0.1,0c0.1,0,0.2,0.1,0.2,0.2c0,0.3,0,0.7,0,1c0,0,0,0.1,0,0.1c0,0,0,0,0.1,0c0.1-0.1,0.1-0.1,0.2-0.2
					c0.1-0.2,0.2-0.3,0.4-0.5c0.6-0.7,1.6-1,2.5-0.8c0.1,0,0.2,0.1,0.2,0.2c0,0,0,0,0,0c0,0.3,0,0.5-0.1,0.8c0,0.4-0.1,0.8-0.1,1.1
					c0,0.1-0.1,0.1-0.2,0.1c-0.3-0.1-0.7-0.1-1-0.1c-0.2,0-0.4,0-0.5,0.1c-0.5,0.1-0.9,0.5-1,0.9c-0.1,0.2-0.2,0.4-0.2,0.7
					c0,0.3,0,0.5,0,0.8c0,0.7,0,1.4,0,2c0,0.1,0,0.3,0,0.4c0,0.1-0.1,0.2-0.2,0.2c0,0-0.1,0-0.1,0c-0.7,0-1.4,0-2.1,0
					c-0.2,0-0.3-0.1-0.3-0.3c0-0.2,0-0.3,0-0.5C664.5,535.2,664.5,534.3,664.5,533.3z"/>
				<path class="st6" d="M628.2,533.4c0,1,0,2,0,2.9c0,0.1,0,0.3,0,0.4c0,0.1-0.1,0.2-0.2,0.2c0,0-0.1,0-0.1,0c-0.7,0-1.3,0-2,0
					c-0.1,0-0.1,0-0.2,0c-0.1,0-0.1-0.1-0.1-0.1c0-0.1,0-0.2,0-0.3c0-2.1,0-4.3,0-6.4c0-0.1,0-0.1,0-0.2c0-0.1,0.1-0.2,0.2-0.2
					c0,0,0,0,0.1,0c0.7,0,1.4,0,2.2,0c0,0,0,0,0.1,0c0.1,0,0.2,0.1,0.2,0.2c0,0.2,0,0.3,0,0.5C628.2,531.4,628.2,532.4,628.2,533.4z
					"/>
				<path class="st6" d="M690.6,533.3c0-1,0-2.1,0-3.1c0-0.1,0-0.2,0-0.3c0-0.1,0.1-0.1,0.1-0.1c0,0,0.1,0,0.1,0c0.7,0,1.4,0,2.1,0
					c0,0,0.1,0,0.1,0c0.1,0,0.2,0.1,0.2,0.2c0,0.1,0,0.2,0,0.3c0,2.1,0,4.2,0,6.3c0,0.1,0,0.2,0,0.3c0,0-0.1,0.1-0.1,0.1
					c0,0,0,0-0.1,0c-0.8,0-1.5,0-2.3,0c-0.1,0-0.2-0.1-0.2-0.2c0-0.2,0-0.3,0-0.5C690.6,535.3,690.6,534.3,690.6,533.3z"/>
				<path class="st6" d="M693.4,527.4c0,0.8-0.7,1.4-1.5,1.4c-0.8,0-1.5-0.6-1.5-1.4c0-0.8,0.6-1.5,1.4-1.5c0,0,0.1,0,0.1,0
					C692.7,526,693.4,526.6,693.4,527.4z"/>
				<path class="st6" d="M628.3,527.5c0,0.8-0.7,1.4-1.5,1.4c0,0,0,0,0,0c-0.8,0-1.4-0.6-1.5-1.4c0-0.8,0.6-1.4,1.4-1.5
					c0,0,0.1,0,0.1,0C627.6,526,628.3,526.6,628.3,527.5C628.3,527.4,628.3,527.5,628.3,527.5z"/>
				<path class="st6" d="M662.7,532c-0.1-0.4-0.2-0.7-0.4-1c-0.4-0.7-1.1-1.1-1.8-1.3c-0.4-0.1-0.7-0.1-1.1-0.1
					c-0.6,0-1.2,0.2-1.7,0.6c-0.2,0.2-0.4,0.4-0.6,0.6c0,0-0.1,0-0.1,0c0,0-0.1,0-0.1-0.1c0-0.2,0-0.4,0-0.6c0-0.1-0.1-0.2-0.2-0.2
					c-0.7,0-1.4,0-2.1,0c-0.1,0-0.2,0.1-0.2,0.2c0,0,0,0,0,0c0,0.2,0,0.4,0,0.6c0,3,0,6,0,9c0,0.2,0,0.5,0,0.7h2.6
					c0-0.1,0-0.2,0-0.3c0-1,0-2.1,0-3.1c0-0.2,0-0.4,0-0.6c0,0,0,0,0,0c0,0,0.1,0,0.1,0c0.1,0.1,0.3,0.3,0.4,0.4
					c0.4,0.4,0.9,0.6,1.4,0.6c0.3,0,0.7,0,1,0c0.6,0,1.2-0.3,1.7-0.7c0.5-0.4,0.9-1,1.1-1.6C663,534,663,532.9,662.7,532z
					 M660.1,534.1c-0.2,0.6-0.8,1-1.5,1c-0.1,0-0.3,0-0.4,0c-0.6,0-1.1-0.4-1.3-0.9c-0.1-0.3-0.2-0.6-0.2-0.9c0-0.3,0-0.6,0.2-0.9
					c0.2-0.4,0.5-0.7,0.9-0.8c0.4-0.1,0.8-0.1,1.1,0c0.5,0.1,1,0.5,1.1,1.1C660.3,533.1,660.3,533.6,660.1,534.1L660.1,534.1z"/>
				<path class="st6" d="M714.9,530.4c-0.8-0.7-1.9-1-2.9-0.9c-0.5,0-1.1,0.1-1.6,0.3c-1.8,0.6-2.9,2.4-2.5,4.3
					c0.2,1.2,1.1,2.3,2.2,2.8c0.7,0.3,1.5,0.5,2.3,0.4c0.7,0,1.4-0.2,2-0.6c1.3-0.7,2-2,2-3.4C716.3,532.1,715.8,531.1,714.9,530.4z
					 M713.5,534.2c-0.2,0.5-0.7,0.8-1.2,0.8c-0.3,0-0.6,0-0.9-0.1c-0.4-0.2-0.7-0.6-0.8-1c-0.1-0.4-0.1-0.8,0-1.1
					c0.1-0.4,0.4-0.8,0.8-1c0.8-0.4,1.7-0.1,2.1,0.7c0,0,0,0.1,0.1,0.2c0.1,0.2,0.1,0.5,0.1,0.8
					C713.7,533.6,713.6,533.9,713.5,534.2z"/>
				<path class="st6" d="M637.6,531.5c-0.5-1-1.4-1.7-2.4-1.9c-0.8-0.2-1.7-0.2-2.5,0c-1.2,0.3-2.1,1.1-2.6,2.2
					c-0.3,0.7-0.4,1.5-0.3,2.3c0.1,1,0.7,1.9,1.6,2.4c0.6,0.4,1.2,0.6,1.9,0.7c0.6,0.1,1.1,0.1,1.7,0c0.5,0,0.9-0.2,1.4-0.4
					c0.4-0.2,0.8-0.5,1-0.8c0.4-0.5,0.3-0.5-0.2-0.7c-0.5-0.2-0.9-0.4-1.4-0.5c-0.1,0-0.1,0-0.2,0c-0.1,0.1-0.2,0.2-0.2,0.2
					c-0.3,0.3-0.6,0.4-1,0.5c-0.3,0-0.6,0-0.9,0c-0.4-0.1-0.8-0.3-1-0.6c-0.2-0.3-0.3-0.6-0.3-0.9c0-0.1,0.1-0.1,0.1-0.1
					c0.1,0,0.3,0,0.4,0c0.8,0,1.6,0,2.4,0v0c0.9,0,1.8,0,2.6,0c0.1,0,0.2-0.1,0.2-0.2c0,0,0,0,0,0
					C638.1,532.9,638,532.2,637.6,531.5z M635.3,532.4c-0.1,0-0.2,0-0.3,0c-0.4,0-0.8,0-1.1,0l0,0c-0.4,0-0.9,0-1.3,0
					c-0.1,0-0.1-0.1-0.1-0.1c0,0,0,0,0-0.1c0.1-0.7,0.7-1.2,1.4-1.2c0.7-0.1,1.4,0.4,1.6,1.1c0,0,0,0.1,0,0.1
					C635.4,532.3,635.4,532.4,635.3,532.4L635.3,532.4z"/>
				<path class="st6" d="M678.8,531.5c-0.5-1-1.4-1.7-2.5-1.9c-0.8-0.2-1.7-0.2-2.5,0c-1.3,0.3-2.3,1.3-2.7,2.5
					c-0.2,0.6-0.2,1.1-0.2,1.7c0.1,0.9,0.5,1.7,1.1,2.3c0.7,0.6,1.5,1,2.4,1c0.6,0.1,1.2,0.1,1.7,0c0.5-0.1,1-0.2,1.4-0.4
					c0.5-0.2,0.9-0.6,1.1-1.1c0.1-0.1,0-0.2-0.1-0.3c0,0,0,0,0,0c-0.6-0.2-1.1-0.4-1.7-0.6c-0.1,0-0.2,0-0.2,0.1
					c0,0-0.1,0.1-0.1,0.2c-0.3,0.3-0.7,0.5-1.1,0.5c-0.3,0-0.5,0-0.8,0c-0.1,0-0.3-0.1-0.4-0.1c-0.6-0.2-0.9-0.8-0.8-1.4
					c0-0.1,0.1-0.1,0.1-0.1c0.1,0,0.3,0,0.4,0c0.8,0,1.5,0,2.3,0c0.7,0,1.5,0,2.2,0c0.2,0,0.3,0,0.5,0c0.1,0,0.2-0.1,0.2-0.2
					C679.3,532.9,679.2,532.2,678.8,531.5z M676.4,532.4c-0.4,0-0.9,0-1.3,0l0,0c-0.4,0-0.9,0-1.3,0c0,0-0.1-0.1-0.1-0.1
					c0,0,0-0.1,0-0.1c0-0.1,0-0.1,0.1-0.2c0.3-0.8,1.2-1.1,2-0.8c0,0,0.1,0,0.1,0c0.4,0.2,0.7,0.6,0.8,1
					C676.6,532.3,676.6,532.4,676.4,532.4C676.5,532.4,676.4,532.4,676.4,532.4z"/>
			</g>
		</g>
	</g>
</g>
</svg>
